<svg version="1.0" xmlns="http://www.w3.org/2000/svg" width="933.333" height="933.333" viewBox="0 0 700 700"><path d="M345.2 25c-23.9 10.1-50.6 30.6-61.9 47.5-10.5 15.7-16.7 33.1-18 50.5-.4 6.6-.8 7.7-3.1 9.5-1.5 1-6.3 5.6-10.7 10-17.6 17.8-26.8 37.4-28.2 59.9l-.6 9.8-4.7 4.7c-15.8 15.5-27 37.2-31.4 60.9-1.3 7.4-1.4 26.6-.1 35.8.6 4.9.6 5.1-3 7.8-7.2 5.5-11.4 15.2-11 25.2.6 13.8 13 26.7 27.1 28.1l5.4.6v28.4c0 30.4.3 32.8 5.3 38.1 4.6 5 9.4 6.6 20.4 6.7 5.6 0 10.5.4 10.9.8.9.9.9 1 1.8 10.3.4 3.9.8 8 1 9 .2 1.1.7 4.8 1.1 8.4.3 3.6.8 7.6 1 9 .2 1.4.6 4.7 1 7.5.3 2.7.8 6.6 1 8.5.2 1.9 1.1 9.6 2 17 2.2 19.2 2.4 21.2 4 34 .8 6.3 1.7 14.2 2.1 17.5.3 3.3.8 6.7.9 7.5.2.8.6 4.4 1 8 .3 3.6.8 7.6 1 9 .2 1.4.7 5 1 8 .3 3 .8 6.6 1 8 .2 1.4.7 5.6 1 9.5.4 3.8.8 7.7 1 8.6.2.9.6 4 1 7 .3 3 1 8.8 1.5 12.9s1.1 9.5 1.4 12c.3 2.5.8 6.4 1.1 8.6 1.1 8.8 5.4 14.8 13 18 3.5 1.4 10.1 1.6 62.7 1.5 42.2 0 59.9-.4 62.8-1.2 8.2-2.5 13.3-10.3 14.5-22.4.4-3.9.8-7.7 1-8.5.2-.8.6-4.4.9-8 .7-7 1.4-12.4 2.1-18 .5-4 1.1-9.2 2-16.5.3-2.8.7-6.4.9-8 .2-1.7.7-5.5 1-8.5.4-3 .9-7.1 1.1-9 .3-1.9.7-5.3.9-7.5.3-2.2.8-6.5 1.2-9.5.4-3 .8-6.6.9-8 .5-5.1 1.7-15.5 2-17 .2-.8.6-4.4 1-8 .3-3.6.8-7.6 1-9 .2-1.4.7-5 1-8 1.1-8.7 1.5-12.3 1.9-16 .3-1.9.8-6 1.1-9 1-9.3 1.4-12.4 2-16.5.2-2.2.7-6 1-8.5 1.8-15.9 2.8-23 3.4-23.1.3 0 5.1-.2 10.6-.3 11-.4 15.4-1.7 19.8-6.1 5.9-6 6.2-7.4 6.3-38 .1-15.4.2-28.3.3-28.6 0-.3 2.2-.9 4.9-1.2 22.9-2.7 35.1-30.3 21.1-47.9-1.6-2-2.9-4.2-2.9-4.8 0-.6 1.1-4.6 2.4-8.8 6.9-21.6 7.9-44.5 3-63.6-8.6-33.3-32.9-62.5-78.6-94.7-27-19-41.9-30.2-47.3-35.6-10.4-10.3-19.3-25.9-22.8-39.8-3.7-14.7-3.8-25.6-.3-42.7 1.5-7.3 1.2-8.9-2-12.2-3.9-3.8-7.4-3.7-17.2.4zm-3.4 30.2c-.3 40.3 17.3 71.8 53.8 96.6 1.1.7 7.1 4.9 13.4 9.2 6.3 4.4 12.6 8.8 14 9.7 14.3 9.7 27.9 21 40 33.3 11.8 11.9 19.2 22 25 34.2 3.4 7.2 4.9 11.6 7.7 23 1 4.3 1.2 24.3.2 30.3-.5 3.3-2.1 9.8-3.5 14.5l-2.6 8.6-27.6-.2c-25.6-.1-50.7-1-56.3-1.9-1.3-.2-5.1-.6-8.4-1-11.2-1.1-15-1.7-25-3.6-5.5-1.1-11.5-2.2-13.4-2.5-6.5-1.1-28-7.3-37.7-11-51.6-19.2-79.6-52.3-77.1-90.8.7-10.6 2.5-17.3 7.4-27.3 3.3-6.9 13.5-20.2 15.9-21 .7-.2 1.5.9 1.9 2.4 1.2 5 8.2 18 12.8 24 15.1 19.4 36.3 33 75.1 48.2 22.8 9 27.3 10.4 31 9.7 6.7-1.3 9.9-9.5 5.7-14.8-1.1-1.4-5.1-3.6-9.3-5.2-37-14-49.9-19.9-63.8-29.1-25-16.5-36.3-36.7-35.5-63.3.6-21.6 8.8-39.8 25-55.8 7.1-7 28-22.4 30.5-22.4.4 0 .8 2.8.8 6.2zm-110.5 190c16.9 35.5 55 61.6 111.2 76.3 11.1 2.9 17.5 4.2 33.5 6.9 3.8.7 10.9 1.6 17 2.2 3 .2 7.3.7 9.5.9 10.1 1.1 29.4 1.7 56.5 1.9 31.8.3 33.4.6 36.3 5.6 2.2 3.6 2.2 7.4 0 11-2.9 5-4.9 5.4-25.7 5.5-20.4.1-24.5.8-26.4 4.8-1.9 4.1-2 6.5-.1 9.6 2.6 4.2 4.8 5.1 13.4 5.2 4.1.1 7.5.4 7.6.7 0 .4.1 12.4.2 26.7l.1 26-119.7.2c-65.8.1-119.7-.1-119.8-.5-.1-1-.1-49.4 0-51.4.1-1.5 5.7-1.7 75.9-1.7h93.5l17.9-.1 2.9-2.9c4-4 4-8.9 0-13.3l-2.9-3.3-105.8-.1c-58.3-.1-106.4-.2-107.1-.3-.6 0-2.5-1.5-4.2-3.2-3.5-3.5-4.1-8.1-1.6-12.9 2.4-4.7 4.8-5.3 20-5.5 15.3-.2 17.4-.8 19.9-5.9 1.9-4 1.1-7.6-2.4-10.9-3.2-2.8-3.6-2.9-16.6-2.8-8.6.1-8.3.5-8.9-14.9-.6-15.7 2.6-31.1 9.3-44.5 2.4-5 11-18.5 11.7-18.5.2 0 2.4 4.2 4.8 9.2zM327 448.9c.8.1-1.8 3.2-6 7.2-4.1 3.8-10.7 10.2-14.6 14.1l-7.2 7-12.2-11.8c-14.2-13.7-16-15.6-16-16.3 0-.5 49.9-.6 56-.2zm89.4 0 2.9.1-4.9 4.6c-2.7 2.5-9.3 8.9-14.7 14.2l-9.9 9.5-9.6-9.5c-5.4-5.3-11.8-11.6-14.5-14.1-2.6-2.5-4.3-4.7-3.7-4.9.8-.2 44-.2 54.4.1zm-54.5 28.9 13.6 13.3-15.4 15-15.5 15-7-6.9c-3.9-3.9-10.9-10.7-15.6-15.1l-8.5-8.2L329 476c14.9-14.3 15.6-14.8 17.4-13.2 1.1.9 8.1 7.7 15.5 15zm61.7-2.6c-.3 1.8-.7 6-1.1 9.3-.3 3.3-.8 7.1-1 8.5-.3 1.4-.7 4.7-1.1 7.5-.3 2.7-.7 5.1-.8 5.2-.1.1-3.5-3.1-7.6-7.2l-7.5-7.5 9.5-9.5c5.2-5.2 9.6-9.5 9.7-9.5.2 0 .1 1.5-.1 3.2zM321 525.9l9.4 9-6.4 6.2c-3.6 3.4-10.6 10.1-15.6 15.1l-9 8.9-13.2-12.8c-12.1-11.9-13.1-13.1-13.5-17l-.4-4.3 13.5-13.1 13.5-13.1 6.1 6c3.3 3.4 10.4 10.1 15.6 15.1zm83-7.9 13.2 12.5-.6 4.9c-.5 3.3-1.4 5.5-2.9 6.8-1.2 1.1-6.9 6.6-12.7 12.3l-10.5 10.3-15.7-14.9-15.7-15 13.1-12.7c7.2-7 14.1-13.7 15.2-15 1.1-1.2 2.3-2.1 2.7-2 .4.2 6.7 5.9 13.9 12.8zm-42.5 47.3 14 13.8L360 594l-15.5 15-7-6.9c-3.8-3.8-10.8-10.6-15.5-15.1l-8.5-8.1L329 564c12.9-12.5 15.7-14.7 16.9-13.7.9.7 7.9 7.4 15.6 15zm-78.8 11.5 2.2 2.4-2.7 2.3c-3.1 2.7-3.6 2.2-4.6-4.9-.5-4.5-.5-4.7 1.1-3.5 1 .8 2.8 2.5 4 3.7zm128.8 1.6c-.4 3.1-1.1 5.6-1.4 5.6-.4 0-1.8-1.1-3.1-2.5l-2.4-2.5 3.4-3.5c1.8-1.9 3.5-3.3 3.8-3.1.2.3.1 2.9-.3 6zm-94.6 31.5c9.4 9.1 17.1 16.8 17.1 17.3 0 .4-11.2.8-24.9.8-28.5 0-25.5 1.2-26.6-10.9l-.7-7.4 8.3-8.3c4.6-4.6 8.7-8.2 9.1-8.1.3.1 8.3 7.6 17.7 16.6zm82.6-8.1c4.7 4.6 8.3 8.7 8.1 9-.2.4-.7 4-1 8.1-.4 4.1-.9 7.7-1.1 8.1-.5.8-50.5.9-50.5.2 0-1 34.5-34.1 35.2-33.9.4.1 4.6 4 9.3 8.5zm2.9 52.2c-.4 3.6-.9 8.5-1.3 11l-.6 4.5h-55.9c-55.2 0-55.9 0-56.1-2-.1-1.1-.6-4.9-1-8.5-1-8.8-1.2-10.4-.9-11 .1-.3 26.4-.6 58.3-.6H403l-.6 6.6z"/></svg>