<?xml version="1.0" standalone="no"?>
<!DOCTYPE svg PUBLIC "-//W3C//DTD SVG 20010904//EN"
 "http://www.w3.org/TR/2001/REC-SVG-20010904/DTD/svg10.dtd">
<svg version="1.0" xmlns="http://www.w3.org/2000/svg"
 width="700.000000pt" height="700.000000pt" viewBox="0 0 700.000000 700.000000"
 preserveAspectRatio="xMidYMid meet">
<metadata>
Created by potrace 1.14, written by Peter Selinger 2001-2017
</metadata>
<g transform="translate(0.000000,700.000000) scale(0.100000,-0.100000)"
fill="#000000" stroke="none">
<path d="M3452 6750 c-239 -101 -506 -306 -619 -475 -105 -157 -167 -331 -180
-505 -4 -66 -8 -77 -31 -95 -15 -10 -63 -56 -107 -100 -176 -178 -268 -374
-282 -599 l-6 -98 -47 -47 c-158 -155 -270 -372 -314 -609 -13 -74 -14 -266
-1 -358 6 -49 6 -51 -30 -78 -72 -55 -114 -152 -110 -252 6 -138 130 -267 271
-281 l54 -6 0 -284 c0 -304 3 -328 53 -381 46 -50 94 -66 204 -67 56 0 105 -4
109 -8 9 -9 9 -10 18 -103 4 -39 8 -80 10 -90 2 -11 7 -48 11 -84 3 -36 8 -76
10 -90 2 -14 6 -47 10 -75 3 -27 8 -66 10 -85 2 -19 11 -96 20 -170 22 -192
24 -212 40 -340 8 -63 17 -142 21 -175 3 -33 8 -67 9 -75 2 -8 6 -44 10 -80 3
-36 8 -76 10 -90 2 -14 7 -50 10 -80 3 -30 8 -66 10 -80 2 -14 7 -56 10 -95 4
-38 8 -77 10 -86 2 -9 6 -40 10 -70 3 -30 10 -88 15 -129 5 -41 11 -95 14
-120 3 -25 8 -64 11 -86 11 -88 54 -148 130 -180 35 -14 101 -16 627 -15 422
0 599 4 628 12 82 25 133 103 145 224 4 39 8 77 10 85 2 8 6 44 9 80 7 70 14
124 21 180 5 40 11 92 20 165 3 28 7 64 9 80 2 17 7 55 10 85 4 30 9 71 11 90
3 19 7 53 9 75 3 22 8 65 12 95 4 30 8 66 9 80 5 51 17 155 20 170 2 8 6 44
10 80 3 36 8 76 10 90 2 14 7 50 10 80 11 87 15 123 19 160 3 19 8 60 11 90
10 93 14 124 20 165 2 22 7 60 10 85 18 159 28 230 34 231 3 0 51 2 106 3 110
4 154 17 198 61 59 60 62 74 63 380 1 154 2 283 3 286 0 3 22 9 49 12 229 27
351 303 211 479 -16 20 -29 42 -29 48 0 6 11 46 24 88 69 216 79 445 30 636
-86 333 -329 625 -786 947 -270 190 -419 302 -473 356 -104 103 -193 259 -228
398 -37 147 -38 256 -3 427 15 73 12 89 -20 122 -39 38 -74 37 -172 -4z m-34
-302 c-3 -403 173 -718 538 -966 11 -7 71 -49 134 -92 63 -44 126 -88 140 -97
143 -97 279 -210 400 -333 118 -119 192 -220 250 -342 34 -72 49 -116 77 -230
10 -43 12 -243 2 -303 -5 -33 -21 -98 -35 -145 l-26 -86 -276 2 c-256 1 -507
10 -563 19 -13 2 -51 6 -84 10 -112 11 -150 17 -250 36 -55 11 -115 22 -134
25 -65 11 -280 73 -377 110 -516 192 -796 523 -771 908 7 106 25 173 74 273
33 69 135 202 159 210 7 2 15 -9 19 -24 12 -50 82 -180 128 -240 151 -194 363
-330 751 -482 228 -90 273 -104 310 -97 67 13 99 95 57 148 -11 14 -51 36 -93
52 -370 140 -499 199 -638 291 -250 165 -363 367 -355 633 6 216 88 398 250
558 71 70 280 224 305 224 4 0 8 -28 8 -62z m-1105 -1900 c169 -355 550 -616
1112 -763 111 -29 175 -42 335 -69 38 -7 109 -16 170 -22 30 -2 73 -7 95 -9
101 -11 294 -17 565 -19 318 -3 334 -6 363 -56 22 -36 22 -74 0 -110 -29 -50
-49 -54 -257 -55 -204 -1 -245 -8 -264 -48 -19 -41 -20 -65 -1 -96 26 -42 48
-51 134 -52 41 -1 75 -4 76 -7 0 -4 1 -124 2 -267 l1 -260 -1197 -2 c-658 -1
-1197 1 -1198 5 -1 10 -1 494 0 514 1 15 57 17 759 17 416 0 837 0 935 0 l179
1 29 29 c40 40 40 89 0 133 l-29 33 -1058 1 c-583 1 -1064 2 -1071 3 -6 0 -25
15 -42 32 -35 35 -41 81 -16 129 24 47 48 53 200 55 153 2 174 8 199 59 19 40
11 76 -24 109 -32 28 -36 29 -166 28 -86 -1 -83 -5 -89 149 -6 157 26 311 93
445 24 50 110 185 117 185 2 0 24 -42 48 -92z m957 -2037 c8 -1 -18 -32 -60
-72 -41 -38 -107 -102 -146 -141 l-72 -70 -122 118 c-142 137 -160 156 -160
163 0 5 499 6 560 2z m894 0 l29 -1 -49 -46 c-27 -25 -93 -89 -147 -142 l-99
-95 -96 95 c-54 53 -118 116 -145 141 -26 25 -43 47 -37 49 8 2 440 2 544 -1z
m-545 -289 l136 -133 -154 -150 -155 -150 -70 69 c-39 39 -109 107 -156 151
l-85 82 155 149 c149 143 156 148 174 132 11 -9 81 -77 155 -150z m617 26 c-3
-18 -7 -60 -11 -93 -3 -33 -8 -71 -10 -85 -3 -14 -7 -47 -11 -75 -3 -27 -7
-51 -8 -52 -1 -1 -35 31 -76 72 l-75 75 95 95 c52 52 96 95 97 95 2 0 1 -15
-1 -32z m-1026 -507 l94 -90 -64 -62 c-36 -34 -106 -101 -156 -151 l-90 -89
-132 128 c-121 119 -131 131 -135 170 l-4 43 135 131 135 131 61 -60 c33 -34
104 -101 156 -151z m830 79 l132 -125 -6 -49 c-5 -33 -14 -55 -29 -68 -12 -11
-69 -66 -127 -123 l-105 -103 -157 149 -157 150 131 127 c72 70 141 137 152
150 11 12 23 21 27 20 4 -2 67 -59 139 -128z m-425 -473 l140 -138 -155 -149
-155 -150 -70 69 c-38 38 -108 106 -155 151 l-85 81 155 149 c129 125 157 147
169 137 9 -7 79 -74 156 -150z m-788 -115 l22 -24 -27 -23 c-31 -27 -36 -22
-46 49 -5 45 -5 47 11 35 10 -8 28 -25 40 -37z m1288 -16 c-4 -31 -11 -56 -14
-56 -4 0 -18 11 -31 25 l-24 25 34 35 c18 19 35 33 38 31 2 -3 1 -29 -3 -60z
m-946 -315 c94 -91 171 -168 171 -173 0 -4 -112 -8 -249 -8 -285 0 -255 -12
-266 109 l-7 74 83 83 c46 46 87 82 91 81 3 -1 83 -76 177 -166z m826 81 c47
-46 83 -87 81 -90 -2 -4 -7 -40 -10 -81 -4 -41 -9 -77 -11 -81 -5 -8 -505 -9
-505 -2 0 10 345 341 352 339 4 -1 46 -40 93 -85z m29 -522 c-4 -36 -9 -85
-13 -110 l-6 -45 -559 0 c-552 0 -559 0 -561 20 -1 11 -6 49 -10 85 -10 88
-12 104 -9 110 1 3 264 6 583 6 l581 0 -6 -66z"/>
</g>
</svg>
